<svg xmlns="http://www.w3.org/2000/svg" id="root" version="1.1" viewBox="0 0 16 16"><path fill="#F3DE9C" stroke="#C9B576" stroke-miterlimit="10" stroke-width=".5" d="M 7.3 14.7 l -6 -6 c -0.4 -0.4 -0.4 -1.1 0 -1.5 l 6 -6 c 0.4 -0.4 1.1 -0.4 1.5 0 l 6 6 c 0.4 0.4 0.4 1.1 0 1.5 l -6 6 c -0.5 0.4 -1.1 0.4 -1.5 0 z"/><circle cx="8" cy="11.5" r="1.415" fill="#fff"/><path fill="#C9B576" d="M 8 10.25 a 1.25 1.25 0 1 1 0 2.5 1.25 1.25 0 0 1 0 -2.5 m 0 -0.33 c -0.871 0 -1.58 0.709 -1.58 1.58 s 0.709 1.58 1.58 1.58 1.58 -0.709 1.58 -1.58 S 8.871 9.92 8 9.92 z"/><path fill="#fff" d="M 8 9.165 A 1.166 1.166 0 0 1 6.835 8 V 4 a 1.166 1.166 0 0 1 2.33 0 v 4 c 0 0.643 -0.522 1.165 -1.165 1.165 z"/><path fill="#C9B576" d="M 8 3 c 0.55 0 1 0.45 1 1 v 4 c 0 0.55 -0.45 1 -1 1 s -1 -0.45 -1 -1 V 4 c 0 -0.55 0.45 -1 1 -1 m 0 -0.33 c -0.733 0 -1.33 0.597 -1.33 1.33 v 4 c 0 0.733 0.597 1.33 1.33 1.33 S 9.33 8.733 9.33 8 V 4 c 0 -0.733 -0.597 -1.33 -1.33 -1.33 z"/></svg>