<svg xmlns="http://www.w3.org/2000/svg" id="root" version="1.1" viewBox="0 0 16 16"><style>.text{color:#4d4d4d}</style><linearGradient id="border-gradient-side" x1="0" x2="0" y1="0" y2="1"><stop offset="0%" stop-color="hsl(0, 0%, 43%)"/><stop offset="100%" stop-color="hsl(0, 0%, 16%)"/></linearGradient><linearGradient id="border-gradient-bottom" x1="0" x2="1" y1="0" y2="0"><stop offset="0%" stop-color="hsl(0, 0%, 39%)"/><stop offset="33%" stop-color="#000"/><stop offset="66%" stop-color="#000"/><stop offset="100%" stop-color="hsl(0, 0%, 39%)"/></linearGradient><linearGradient id="background-gradient" x1="0" x2="0" y1="0" y2="1"><stop offset="0%" stop-color="hsl(0, 0%, 93%)"/><stop offset="100%" stop-color="#fff"/></linearGradient><linearGradient id="background-gradient-inner" x1="0" x2="0" y1="0" y2="1"><stop offset="0%" stop-color="hsl(0, 0%, 87%)"/><stop offset="100%" stop-color="#fff"/></linearGradient><g opacity=".4"><rect width="12" height="1" x="2" y="0" fill="hsl(0, 0%, 43%)"/><rect width="12" height="1" x="2" y="15" fill="url(#border-gradient-bottom)"/><rect width="1" height="15" x="2" y="0" fill="url(#border-gradient-side)"/><rect width="1" height="15" x="13" y="0" fill="url(#border-gradient-side)"/><line x1="2" x2="3" y1=".5" y2=".5" stroke="hsl(0, 0%, 51%)"/><line x1="13" x2="14" y1=".5" y2=".5" stroke="hsl(0, 0%, 51%)"/></g><rect width="10" height="14" x="3" y="1" fill="url(#background-gradient)"/><rect width="8" height="13" x="4" y="2" fill="url(#background-gradient-inner)"/><g class="text"><path fill="currentColor" d="M 5 3 L 7 3 L 7 7 L 6 7 L 6 4 L 5 4"/><rect width="2" height="3" x="8.5" y="3.5" fill="none" stroke="currentColor"/><rect width="2" height="3" x="5.5" y="9.5" fill="none" stroke="currentColor"/><path fill="currentColor" d="M 9 9 L 11 9 L 11 13 L 10 13 L 10 10 L 9 10"/></g></svg>